<svg xmlns="http://www.w3.org/2000/svg" width="50" height="50" version="1.2" viewBox="0 0 100 100"><path d="M98.2 61.4q3.9-16.3-.9-29.6-5-14.2-17.9-19.7-18.8-8.2-37.8-3.3-19.3 5-29.9 21Q-1.9 47.4.3 76.8q.6 7.1 14.9 12.1 14.5 5 35 5 20.4 0 34.8-5 14.2-5 15-12.1.1-1.3-1.9-6.1-1.8-4.1.1-9.3z" style="fill:#fcc21b"/><path d="M31.1 50.2q.8 5.1 4.1 10.4 4.9-3.4 8.2-8.1 2.4 5.6 6.5 10.2 4.4-2.6 9.1-7.9" style="fill:none;stroke:#2f2f2f;stroke-linecap:round;stroke-linejoin:round;stroke-width:2.5"/><path d="M21.1 32q-1.6 3.1-.8 6 .7 3 3.2 4.3 2.5 1.3 5.4 0 2.8-1.3 4.4-4.3 1.5-2.9.8-6.1-.8-3-3.4-4.2-2.5-1.3-5.4 0-2.8 1.3-4.2 4.3zm45.9-.2q-1.6.3-3.1 1.5-2.6 2.1-3.4 5.5-.6 3.6.8 6.4 1.6 2.9 4.6 3.4.6.2 1.1.2 2.3 0 4.4-1.7 2.5-1.9 3.3-5.4.7-3.4-.9-6.3-1.5-2.9-4.4-3.6-1.1-.1-2.4 0z" style="fill:#2f2f2f"/></svg>